<svg width="63" height="62" viewBox="0 0 63 62" fill="none" xmlns="http://www.w3.org/2000/svg">
<g filter="url(#filter0_d_126_666)">
<path d="M26.0689 10.228C26.852 7.8593 29.9696 7.35388 31.3679 9.36892L36.8034 17.202C37.389 18.0459 38.3722 18.5171 39.4039 18.4483L49.2586 17.791C51.9401 17.6122 53.4134 20.8 51.577 22.8075L45.5714 29.3728C44.7823 30.2355 44.5474 31.468 44.9678 32.5401L48.0969 40.5195C49.0283 42.8943 46.7395 45.3317 44.3269 44.5342L34.5242 41.2938C33.6118 40.9922 32.6017 41.156 31.8126 41.7334L23.3351 47.9374C21.2487 49.4643 18.3929 47.861 18.6312 45.2965L19.4317 36.6801C19.5393 35.5223 18.9767 34.4191 17.9859 33.8449L10.4461 29.4757C8.14056 28.1397 8.67362 24.6266 11.2849 23.9473L20.8816 21.4511C21.8863 21.1898 22.6964 20.4279 23.0244 19.4358L26.0689 10.228Z" fill="url(#paint0_linear_126_666)"/>
<path d="M23.7061 9.48002C25.1421 5.13757 30.8576 4.21084 33.4211 7.90503L38.8561 15.7378C38.9537 15.8784 39.1176 15.9569 39.2895 15.9454L49.1441 15.2884C54.0602 14.9605 56.7609 20.8049 53.3942 24.4853L47.3895 31.0511C47.258 31.1949 47.218 31.4002 47.2881 31.5789L50.4179 39.5579C52.1253 43.9117 47.9291 48.3803 43.5063 46.9186L33.7032 43.6781C33.5512 43.6278 33.3826 43.6552 33.2511 43.7514L24.7743 49.9554C20.9492 52.7547 15.7127 49.8151 16.1495 45.1135L16.9508 36.4972C16.9687 36.3045 16.8748 36.1207 16.71 36.0249L9.16987 31.655C4.94311 29.2056 5.92011 22.7651 10.7075 21.5198L20.304 19.0234C20.4714 18.9798 20.6064 18.8529 20.6611 18.6876L23.7061 9.48002Z" stroke="white" stroke-width="5"/>
</g>
<defs>
<filter id="filter0_d_126_666" x="0" y="3.09766" width="61.3896" height="58.4619" filterUnits="userSpaceOnUse" color-interpolation-filters="sRGB">
<feFlood flood-opacity="0" result="BackgroundImageFix"/>
<feColorMatrix in="SourceAlpha" type="matrix" values="0 0 0 0 0 0 0 0 0 0 0 0 0 0 0 0 0 0 127 0" result="hardAlpha"/>
<feOffset dy="4"/>
<feGaussianBlur stdDeviation="2"/>
<feComposite in2="hardAlpha" operator="out"/>
<feColorMatrix type="matrix" values="0 0 0 0 0.454902 0 0 0 0 0.447059 0 0 0 0 0.627451 0 0 0 1 0"/>
<feBlend mode="normal" in2="BackgroundImageFix" result="effect1_dropShadow_126_666"/>
<feBlend mode="normal" in="SourceGraphic" in2="effect1_dropShadow_126_666" result="shape"/>
</filter>
<linearGradient id="paint0_linear_126_666" x1="34.9085" y1="53.915" x2="26.9207" y2="4.64447" gradientUnits="userSpaceOnUse">
<stop offset="0.283654" stop-color="#F3D58A"/>
<stop offset="1" stop-color="#FFF2D4"/>
</linearGradient>
</defs>
</svg>
